<svg xmlns="http://www.w3.org/2000/svg" width="1440" height="810" viewBox="0 0 1440 810">
<defs>
 <linearGradient id="sky" x1="0" y1="0" x2="0" y2="1"><stop stop-color="#f6f4c8"/><stop offset=".52" stop-color="#cfe58e"/><stop offset="1" stop-color="#6baa4f"/></linearGradient>
 <radialGradient id="sun" cx="50%" cy="12%" r="58%"><stop stop-color="#fffde0" stop-opacity="1"/><stop offset=".45" stop-color="#fff2a0" stop-opacity=".5"/><stop offset="1" stop-color="#fff2a0" stop-opacity="0"/></radialGradient>
 <linearGradient id="trunk" x1="0" x2="1"><stop stop-color="#3f2215"/><stop offset=".45" stop-color="#85502d"/><stop offset="1" stop-color="#2d1a12"/></linearGradient>
 <filter id="blur"><feGaussianBlur stdDeviation="9"/></filter>
</defs>
<rect width="1440" height="810" fill="url(#sky)"/>
<rect width="1440" height="520" fill="url(#sun)"/>
<path d="M0 520 Q220 430 430 515 T870 500 T1440 470 V810 H0Z" fill="#78b859"/>
<path d="M0 610 Q250 520 530 610 T1030 575 T1440 590 V810 H0Z" fill="#4f984d"/>
<path d="M0 700 Q320 620 620 700 T1130 680 T1440 660 V810 H0Z" fill="#2f743f"/>
<!-- tree trunks -->
<path d="M0 0H115C95 155 120 330 92 520L0 610Z" fill="url(#trunk)"/>
<path d="M1440 0H1320C1340 170 1310 320 1348 530L1440 610Z" fill="url(#trunk)"/>
<!-- foliage canopies -->
<g fill="#235d31"><circle cx="80" cy="50" r="150"/><circle cx="210" cy="5" r="115"/><circle cx="1365" cy="45" r="150"/><circle cx="1245" cy="5" r="115"/></g>
<g fill="#3f8240"><circle cx="70" cy="155" r="90"/><circle cx="185" cy="115" r="80"/><circle cx="1370" cy="160" r="92"/><circle cx="1250" cy="115" r="82"/></g>
<!-- light rays -->
<path d="M600 0 L410 590 L565 590 L710 0Z" fill="#fffad0" opacity=".17"/>
<path d="M850 0 L760 560 L890 560 L970 0Z" fill="#fffad0" opacity=".12"/>
<!-- distant flowers -->
<g opacity=".8"><circle cx="370" cy="398" r="5" fill="#fff"/><circle cx="390" cy="420" r="4" fill="#f6a0b5"/><circle cx="1020" cy="410" r="5" fill="#fff"/><circle cx="1070" cy="430" r="4" fill="#f6a0b5"/></g>
<!-- foreground plants -->
<g fill="#2b7139"><path d="M80 770q20-70 40 0q22-85 42 0z"/><path d="M1270 770q22-72 42 0q25-90 48 0z"/></g>
<g font-family="Arial" font-size="32"><text x="90" y="740">🌼</text><text x="1280" y="742">🌸</text><text x="1170" y="700">🍄</text><text x="220" y="705">🌿</text></g>
</svg>
